<svg width="54" height="44" viewBox="0 0 54 44" fill="none" xmlns="http://www.w3.org/2000/svg">
    <path d="M45.15 0.200012C47.338 0.200012 49.4365 1.06921 50.9836 2.61638C52.5308 4.16356 53.4 6.26198 53.4 8.45001V34.85C53.4 37.038 52.5308 39.1365 50.9836 40.6836C49.4365 42.2308 47.338 43.1 45.15 43.1H8.85001C6.66197 43.1 4.56355 42.2308 3.01638 40.6836C1.4692 39.1365 0.600006 37.038 0.600006 34.85V8.45001C0.600006 6.26198 1.4692 4.16356 3.01638 2.61638C4.56355 1.06921 6.66197 0.200012 8.85001 0.200012H45.15ZM50.1 13.2713L27.8382 26.3723C27.6277 26.4959 27.3925 26.5712 27.1494 26.5929C26.9063 26.6146 26.6614 26.5821 26.4324 26.4977L26.1618 26.3723L3.90001 13.2779V34.85C3.90001 36.1628 4.42152 37.4219 5.34983 38.3502C6.27813 39.2785 7.53718 39.8 8.85001 39.8H45.15C46.4628 39.8 47.7219 39.2785 48.6502 38.3502C49.5785 37.4219 50.1 36.1628 50.1 34.85V13.2713ZM45.15 3.50001H8.85001C7.53718 3.50001 6.27813 4.02153 5.34983 4.94983C4.42152 5.87814 3.90001 7.13719 3.90001 8.45001V9.44661L27 23.036L50.1 9.44001V8.45001C50.1 7.13719 49.5785 5.87814 48.6502 4.94983C47.7219 4.02153 46.4628 3.50001 45.15 3.50001Z"
          fill="white"/>
</svg>
