<svg width="46" height="46" viewBox="0 0 46 46" fill="none" xmlns="http://www.w3.org/2000/svg">
    <path d="M42.5383 0H3.39158C1.51634 0 0 1.47575 0 3.30031V42.4836C0 44.3082 1.51634 45.7929 3.39158 45.7929H42.5383C44.4136 45.7929 45.9389 44.3082 45.9389 42.4926V3.30031C45.9389 1.47575 44.4136 0 42.5383 0ZM13.6291 39.0223H6.81008V17.1634H13.6291V39.0223ZM10.2196 14.1851C8.03033 14.1851 6.26276 12.4231 6.26276 10.2497C6.26276 8.07636 8.03033 6.31441 10.2196 6.31441C12.3999 6.31441 14.1675 8.07636 14.1675 10.2497C14.1675 12.4142 12.3999 14.1851 10.2196 14.1851ZM39.1467 39.0223H32.3367V28.3969C32.3367 25.8658 32.2918 22.6013 28.7926 22.6013C25.2484 22.6013 24.7101 25.365 24.7101 28.2181V39.0223H17.909V17.1634H24.4409V20.1507H24.5306C25.4369 18.4334 27.662 16.6178 30.9729 16.6178C37.8727 16.6178 39.1467 21.1434 39.1467 27.0285V39.0223V39.0223Z"
          fill="#6C47FF"/>
</svg>
